<mxfile host="Electron" modified="2025-04-07T10:35:36.404Z" agent="Mozilla/5.0 (X11; Linux x86_64) AppleWebKit/537.36 (KHTML, like Gecko) draw.io/22.1.2 Chrome/114.0.5735.289 Electron/25.9.4 Safari/537.36" etag="iTmcCdjBvpmxsxAiOpqG" version="22.1.2" type="device">
  <diagram name="Page-1" id="nI6glAh-BrRAY43IHI7o">
    <mxGraphModel dx="884" dy="563" grid="1" gridSize="10" guides="1" tooltips="1" connect="1" arrows="1" fold="1" page="1" pageScale="1" pageWidth="827" pageHeight="1169" math="0" shadow="0">
      <root>
        <mxCell id="0" />
        <mxCell id="1" parent="0" />
        <mxCell id="P-PdjG4moJ6nt3oBREXL-1" value="Parameters" style="swimlane;fontStyle=1;align=center;verticalAlign=top;childLayout=stackLayout;horizontal=1;startSize=23.68421052631579;horizontalStack=0;resizeParent=1;resizeParentMax=0;resizeLast=0;collapsible=0;marginBottom=0;" vertex="1" parent="1">
          <mxGeometry x="90" y="70" width="278" height="215.68421052631578" as="geometry" />
        </mxCell>
        <mxCell id="P-PdjG4moJ6nt3oBREXL-2" value="+double controlFrequency = 100.0" style="text;strokeColor=none;fillColor=none;align=left;verticalAlign=top;spacingLeft=4;spacingRight=4;overflow=hidden;rotatable=0;points=[[0,0.5],[1,0.5]];portConstraint=eastwest;" vertex="1" parent="P-PdjG4moJ6nt3oBREXL-1">
          <mxGeometry y="23.68421052631579" width="278" height="24" as="geometry" />
        </mxCell>
        <mxCell id="P-PdjG4moJ6nt3oBREXL-3" value="+double jointPositionGain = 10.0" style="text;strokeColor=none;fillColor=none;align=left;verticalAlign=top;spacingLeft=4;spacingRight=4;overflow=hidden;rotatable=0;points=[[0,0.5],[1,0.5]];portConstraint=eastwest;" vertex="1" parent="P-PdjG4moJ6nt3oBREXL-1">
          <mxGeometry y="47.684210526315795" width="278" height="24" as="geometry" />
        </mxCell>
        <mxCell id="P-PdjG4moJ6nt3oBREXL-4" value="+double jointVelocityGain = 1.0" style="text;strokeColor=none;fillColor=none;align=left;verticalAlign=top;spacingLeft=4;spacingRight=4;overflow=hidden;rotatable=0;points=[[0,0.5],[1,0.5]];portConstraint=eastwest;" vertex="1" parent="P-PdjG4moJ6nt3oBREXL-1">
          <mxGeometry y="71.6842105263158" width="278" height="24" as="geometry" />
        </mxCell>
        <mxCell id="P-PdjG4moJ6nt3oBREXL-5" value="+double minManipulability = 1e-04" style="text;strokeColor=none;fillColor=none;align=left;verticalAlign=top;spacingLeft=4;spacingRight=4;overflow=hidden;rotatable=0;points=[[0,0.5],[1,0.5]];portConstraint=eastwest;" vertex="1" parent="P-PdjG4moJ6nt3oBREXL-1">
          <mxGeometry y="95.6842105263158" width="278" height="24" as="geometry" />
        </mxCell>
        <mxCell id="P-PdjG4moJ6nt3oBREXL-6" value="+double maxJointAcceleration = 10.0" style="text;strokeColor=none;fillColor=none;align=left;verticalAlign=top;spacingLeft=4;spacingRight=4;overflow=hidden;rotatable=0;points=[[0,0.5],[1,0.5]];portConstraint=eastwest;" vertex="1" parent="P-PdjG4moJ6nt3oBREXL-1">
          <mxGeometry y="119.6842105263158" width="278" height="24" as="geometry" />
        </mxCell>
        <mxCell id="P-PdjG4moJ6nt3oBREXL-7" value="+Eigen::Matrix cartesianStiffness" style="text;strokeColor=none;fillColor=none;align=left;verticalAlign=top;spacingLeft=4;spacingRight=4;overflow=hidden;rotatable=0;points=[[0,0.5],[1,0.5]];portConstraint=eastwest;" vertex="1" parent="P-PdjG4moJ6nt3oBREXL-1">
          <mxGeometry y="143.68421052631578" width="278" height="24" as="geometry" />
        </mxCell>
        <mxCell id="P-PdjG4moJ6nt3oBREXL-8" value="+Eigen::Matrix cartesianDamping" style="text;strokeColor=none;fillColor=none;align=left;verticalAlign=top;spacingLeft=4;spacingRight=4;overflow=hidden;rotatable=0;points=[[0,0.5],[1,0.5]];portConstraint=eastwest;" vertex="1" parent="P-PdjG4moJ6nt3oBREXL-1">
          <mxGeometry y="167.68421052631578" width="278" height="24" as="geometry" />
        </mxCell>
        <mxCell id="P-PdjG4moJ6nt3oBREXL-9" value="+SolverOptions qpsolver" style="text;strokeColor=none;fillColor=none;align=left;verticalAlign=top;spacingLeft=4;spacingRight=4;overflow=hidden;rotatable=0;points=[[0,0.5],[1,0.5]];portConstraint=eastwest;" vertex="1" parent="P-PdjG4moJ6nt3oBREXL-1">
          <mxGeometry y="191.68421052631578" width="278" height="24" as="geometry" />
        </mxCell>
      </root>
    </mxGraphModel>
  </diagram>
</mxfile>
